<svg width="36" height="37" viewBox="0 0 36 37" fill="none" xmlns="http://www.w3.org/2000/svg">
<path d="M25.5 27.5C26.2956 27.5 27.0587 27.8161 27.6213 28.3787C28.1839 28.9413 28.5 29.7044 28.5 30.5C28.5 31.2956 28.1839 32.0587 27.6213 32.6213C27.0587 33.1839 26.2956 33.5 25.5 33.5C24.7044 33.5 23.9413 33.1839 23.3787 32.6213C22.8161 32.0587 22.5 31.2956 22.5 30.5C22.5 28.835 23.835 27.5 25.5 27.5ZM1.5 3.5H6.405L7.815 6.5H30C30.3978 6.5 30.7794 6.65804 31.0607 6.93934C31.342 7.22064 31.5 7.60218 31.5 8C31.5 8.255 31.425 8.51 31.32 8.75L25.95 18.455C25.44 19.37 24.45 20 23.325 20H12.15L10.8 22.445L10.755 22.625C10.755 22.7245 10.7945 22.8198 10.8648 22.8902C10.9352 22.9605 11.0305 23 11.13 23H28.5V26H10.5C9.70435 26 8.94129 25.6839 8.37868 25.1213C7.81607 24.5587 7.5 23.7956 7.5 23C7.5 22.475 7.635 21.98 7.86 21.56L9.9 17.885L4.5 6.5H1.5V3.5ZM10.5 27.5C11.2956 27.5 12.0587 27.8161 12.6213 28.3787C13.1839 28.9413 13.5 29.7044 13.5 30.5C13.5 31.2956 13.1839 32.0587 12.6213 32.6213C12.0587 33.1839 11.2956 33.5 10.5 33.5C9.70435 33.5 8.94129 33.1839 8.37868 32.6213C7.81607 32.0587 7.5 31.2956 7.5 30.5C7.5 28.835 8.835 27.5 10.5 27.5ZM24 17L28.17 9.5H9.21L12.75 17H24Z" fill="#FFF5FC"/>
</svg>
