<svg width="31" height="46" viewBox="0 0 31 46" fill="none" xmlns="http://www.w3.org/2000/svg">
<path fill-rule="evenodd" clip-rule="evenodd" d="M15.5 -0.000488281C6.95315 -0.000488281 -0.00012207 6.88831 -0.00012207 15.3553C-0.00012207 20.0012 2.09362 24.1722 5.39551 26.9905L4.67623 43.8883L4.67593 43.9199L4.67563 43.9515C4.67563 44.7515 5.14481 45.4822 5.87099 45.8124C6.60032 46.1458 7.43913 46.0264 8.05891 45.4983L15.5 39.1467L22.943 45.5008C23.3288 45.8286 23.8018 45.9983 24.2791 45.9983C24.5666 45.9983 24.8559 45.9371 25.1291 45.8124C25.8553 45.4822 26.3239 44.7515 26.3239 43.9515C26.3239 43.9308 26.3239 43.909 26.3226 43.8883L25.604 26.9908C28.9061 24.1725 31.0002 20.0014 31.0002 15.3553C31.0002 6.88831 24.0463 -0.000488281 15.5 -0.000488281ZM7.82059 41.7137L8.36267 28.984C10.5001 30.0871 12.9279 30.711 15.5 30.711C18.0721 30.711 20.4999 30.087 22.6373 28.9839L23.1789 41.714L16.8809 36.3383C16.0937 35.6097 14.9058 35.6086 14.1186 36.3383L7.82059 41.7137ZM15.5 27.6901C8.63452 27.6901 3.04964 22.1566 3.04964 15.3553C3.04964 8.55426 8.63452 3.02041 15.5 3.02041C22.3662 3.02041 27.9505 8.55426 27.9505 15.3553C27.9505 22.1566 22.3662 27.6901 15.5 27.6901ZM20.1142 10.7629C20.7097 10.1731 21.6749 10.1731 22.2704 10.7629C22.8659 11.3528 22.8659 12.3087 22.2704 12.8989L14.5455 20.5515C14.2592 20.835 13.8709 20.9941 13.4671 20.9941H13.4621C13.0564 20.9931 12.6687 20.8315 12.3831 20.5448L8.21574 16.3663C7.62333 15.7726 7.62956 14.8171 8.2288 14.2304C8.82803 13.644 9.79319 13.65 10.385 14.2434L13.4746 17.3412L20.1142 10.7629Z" fill="white"/>
</svg>
