<svg width="42" height="46" viewBox="0 0 42 46" fill="none" xmlns="http://www.w3.org/2000/svg">
<path fill-rule="evenodd" clip-rule="evenodd" d="M3.18373 17.897C3.18373 8.03392 11.1769 0.00927734 21 0.00927734C30.8239 0.00927734 38.8163 8.05677 38.8163 17.9482V19.8794C40.6572 20.4877 41.9905 22.2349 41.9905 24.2897V30.9906C41.9905 33.0747 40.6175 34.8426 38.7344 35.4254C38.1306 39.9581 34.265 43.4642 29.6011 43.4642H26.6312C26.8941 42.9004 27.0411 42.2714 27.0411 41.6082C27.0411 41.1789 26.9794 40.7637 26.8645 40.3713H29.6011C32.4953 40.3713 34.9284 38.3464 35.5759 35.6289H34.1064V32.5357H37.3832C38.2301 32.5357 38.919 31.8425 38.919 30.9895V24.2883C38.919 23.4367 38.2301 22.7429 37.3832 22.7429H34.0553V19.6496H35.7448V17.9482C35.7448 9.76201 29.13 3.10259 21 3.10259C12.8701 3.10259 6.25589 9.73917 6.25589 17.897V19.6486H6.49667C6.43988 19.81 6.40897 19.9839 6.40897 20.165V22.7422H4.61685C3.77055 22.7422 3.08107 23.4353 3.08107 24.2883V30.9895C3.08107 31.8415 3.77055 32.5357 4.61685 32.5357H6.40897V35.0623C6.40897 35.2622 6.44674 35.4534 6.51553 35.6289H4.61685C2.07673 35.6289 0.00952148 33.5478 0.00952148 30.9895V24.2883C0.00952148 22.2346 1.34288 20.487 3.18373 19.8785V17.897ZM6.51553 35.6289C6.73836 36.1975 7.28663 36.6019 7.93045 36.6091L13.3062 36.6604H13.3206C13.7257 36.6604 14.1133 36.4995 14.4014 36.2128C14.6927 35.9212 14.8564 35.526 14.8564 35.1136V20.165C14.8564 19.3106 14.1687 18.6189 13.3206 18.6189H7.94475C7.27641 18.6189 6.70774 19.0484 6.49667 19.6486H7.94475V22.7422H6.40897V32.5357H7.89371V35.6289H6.51553ZM26.8645 40.3713C26.3332 38.5559 24.663 37.2267 22.6895 37.2267H21C18.6005 37.2267 16.6485 39.1926 16.6485 41.6082C16.6485 44.0252 18.6005 45.9898 21 45.9898H22.6895C24.4302 45.9898 25.936 44.9553 26.6312 43.4642H25.3516V40.3713H26.8645ZM22.6895 42.8976H21C20.318 42.8976 19.72 42.2951 19.72 41.6082C19.72 40.9218 20.318 40.3196 21 40.3196H22.6895C23.3715 40.3196 23.9695 40.9218 23.9695 41.6082C23.9695 42.3312 23.4076 42.8976 22.6895 42.8976ZM9.48052 33.5295L11.7842 33.5527V21.7118H9.48052V33.5295ZM34.1064 18.6189H28.6795C27.8313 18.6189 27.1437 19.3106 27.1437 20.165V35.0623C27.1437 35.9152 27.8313 36.6091 28.6795 36.6091H34.1064C34.9545 36.6091 35.6421 35.9152 35.6421 35.0623V20.165C35.6421 19.3106 34.9545 18.6189 34.1064 18.6189ZM32.5706 33.5158H30.2153V21.7118H32.5706V33.5158Z" fill="white"/>
</svg>
