<svg width="36" height="37" viewBox="0 0 36 37" fill="none" xmlns="http://www.w3.org/2000/svg">
<path fill-rule="evenodd" clip-rule="evenodd" d="M15.7501 3.5C13.717 3.50017 11.7134 3.98655 9.90652 4.91854C8.09961 5.85054 6.54178 7.20113 5.36299 8.85763C4.1842 10.5141 3.41865 12.4285 3.1302 14.4411C2.84175 16.4536 3.03876 18.506 3.7048 20.4269C4.37085 22.3478 5.48661 24.0816 6.95899 25.4836C8.43138 26.8856 10.2177 27.9152 12.1689 28.4864C14.1201 29.0576 16.1796 29.154 18.1757 28.7674C20.1717 28.3808 22.0463 27.5224 23.6431 26.264L29.1211 31.742C29.404 32.0152 29.7829 32.1664 30.1762 32.163C30.5695 32.1596 30.9458 32.0018 31.2239 31.7237C31.502 31.4456 31.6597 31.0694 31.6631 30.6761C31.6666 30.2828 31.5154 29.9039 31.2421 29.621L25.7641 24.143C27.2461 22.2629 28.1689 20.0036 28.4268 17.6236C28.6847 15.2436 28.2673 12.839 27.2225 10.6851C26.1776 8.53125 24.5475 6.71503 22.5186 5.44435C20.4897 4.17366 18.1441 3.49984 15.7501 3.5ZM6.00014 16.25C6.00014 13.6641 7.02737 11.1842 8.85584 9.35571C10.6843 7.52723 13.1643 6.5 15.7501 6.5C18.336 6.5 20.8159 7.52723 22.6444 9.35571C24.4729 11.1842 25.5001 13.6641 25.5001 16.25C25.5001 18.8359 24.4729 21.3158 22.6444 23.1443C20.8159 24.9728 18.336 26 15.7501 26C13.1643 26 10.6843 24.9728 8.85584 23.1443C7.02737 21.3158 6.00014 18.8359 6.00014 16.25Z" fill="white"/>
</svg>
