<svg width="48" height="33" viewBox="0 0 48 33" fill="none" xmlns="http://www.w3.org/2000/svg">
<path fill-rule="evenodd" clip-rule="evenodd" d="M47.6825 16.38L44.8616 12.7773L44.8642 12.7759L40.3266 3.82599C40.069 3.31976 39.5469 3.00004 38.9744 3.00004H32.5215V1.49996C32.5215 0.6712 31.8438 -0.000488281 31.0087 -0.000488281H5.79795C4.96285 -0.000488281 4.2858 0.6712 4.2858 1.49996C4.2858 2.32835 4.96285 3.00004 5.79795 3.00004H29.496V13.5C29.496 14.3277 30.173 14.9997 31.0087 14.9997H42.7715L44.975 17.8134V25.5496H42.1243C41.4686 22.9393 39.0846 20.9994 36.2526 20.9994C33.4198 20.9994 31.0355 22.9396 30.3801 25.5503H21.4519C20.7965 22.9396 18.4123 20.9994 15.5801 20.9994C12.7473 20.9994 10.363 22.9396 9.70758 25.5503H5.79795C4.96285 25.5503 4.2858 26.2213 4.2858 27.05C4.2858 27.8784 4.96285 28.5494 5.79795 28.5494H9.73367C10.4243 31.1092 12.7837 32.9995 15.5801 32.9995C18.3757 32.9995 20.7348 31.1096 21.4257 28.5501H30.4064C31.0972 31.1096 33.4564 32.9995 36.2526 32.9995C39.0485 32.9995 41.4077 31.1092 42.0984 28.5494H46.4877C47.3228 28.5494 47.9999 27.8784 47.9999 27.05V17.2998C47.9999 16.9671 47.8879 16.6432 47.6825 16.38ZM38.0416 5.99988L41.084 11.9999H32.5215V5.99988H38.0416ZM33.2271 26.9998C33.2271 28.6544 34.5837 29.9996 36.2526 29.9996C37.9209 29.9996 39.2775 28.6544 39.2775 26.9998C39.2775 25.3451 37.9209 24 36.2526 24C34.5837 24 33.2271 25.3451 33.2271 26.9998ZM12.5546 26.9998C12.5546 28.6544 13.9112 29.9996 15.5801 29.9996C17.2484 29.9996 18.605 28.6544 18.605 26.9998C18.605 25.3451 17.2478 24 15.5801 24C13.9112 24 12.5546 25.3451 12.5546 26.9998ZM3.9834 17.95H10.9417C11.7768 17.95 12.4538 18.6214 12.4538 19.4498C12.4538 20.2782 11.7768 20.9502 10.9411 20.9502H3.9834C3.1477 20.9502 2.47065 20.2785 2.47065 19.4498C2.47065 18.6214 3.1477 17.95 3.9834 17.95ZM14.4202 12.0498H1.513C0.677252 12.0498 0.00025177 12.7215 0.00025177 13.5499C0.00025177 14.3786 0.677252 15.0503 1.513 15.0503H14.4202C15.2559 15.0503 15.9329 14.3779 15.9329 13.5499C15.9329 12.7215 15.2559 12.0498 14.4202 12.0498ZM3.9834 6.1499H16.8906C17.7263 6.1499 18.4033 6.82126 18.4033 7.64998C18.4033 8.47838 17.7263 9.14938 16.8906 9.14938H3.9834C3.1477 9.14938 2.47065 8.47838 2.47065 7.64998C2.47065 6.82126 3.1477 6.1499 3.9834 6.1499Z" fill="white"/>
</svg>
